<?xml version="1.0" encoding="UTF-8"?>
<svg id="Layer_1" data-name="Layer 1" xmlns="http://www.w3.org/2000/svg" viewBox="0 0 334.73 354.82">
  <defs>
    <style>
      .cls-1 {
        fill: #5ca972;
      }

      .cls-2 {
        fill: #7d4cc3;
      }

      .cls-3 {
        fill: #327144;
      }

      .cls-4 {
        fill: #6c33bf;
      }

      .cls-5 {
        fill: #c1382b;
      }

      .cls-6 {
        fill: #552698;
      }

      .cls-7 {
        fill: #96dd5e;
      }

      .cls-8 {
        fill: #4a8f5e;
      }

      .cls-9 {
        fill: #dd2f22;
      }
    </style>
  </defs>
  <path class="cls-7" d="m156.08,326.7l-64.35-63.37s-30.7-29.92-20.48-79.56c4.15-25.18,23.41-45.62,50.71-70.98l7.43-7.19.73-.74c15.32-15.55,40.01-16.07,55.16-1.16l-.06.06,30.98,30.51c5.46,5.67,33.39,27.21,27.16,79.58-2.83,27.96-25.36,49.96-25.36,49.96l-61.93,62.89Z"/>
  <ellipse class="cls-9" cx="155.23" cy="88.02" rx="34.52" ry="34.87" transform="translate(-16.4 136.87) rotate(-45.44)"/>
  <path class="cls-5" d="m179.99,112.41c2.4-2.43,4.35-5.14,5.87-8.02l-.73-.71.06-.06c-15.15-14.92-39.84-14.4-55.16,1.16l-.73.74-2.38,2.31c1.18,1.65,2.5,3.23,4,4.71,13.72,13.51,35.69,13.46,49.07-.13Z"/>
  <g id="plum">
    <g>
      <path class="cls-8" d="m156.73,143.91c-.95.87.92,3.52.88,4.82.86,4.55.58,9.86-2.33,13.53-9.85.92-19.37,4-27.09,10.35,0,.04-.02.08-.04.12.02-.03.03-.07.04-.12-6.97,4.69-10.47,12.46-13.81,19.88-1.32,2.56-1.09,4.03,2.1,4.2,2.7.22,5.39.07,8.04-.5,14.61-3.1,27.78-13.79,32.75-28.01.95-4.4,2.83-8.54,3.31-13.05l.17.13c2.45,6.01,2.63,12.41,2.67,18.82.03,1.77,0,3.55-.38,5.3-.5,1.26.07,2.82,1.63,2.04,0,1.06.52,2.59,1.84,2.05,1.24-.64.55-2.15.53-3.23-.43-2.7-.2-5.41-.2-8.12-.22-4.02-.91-8.01-1.87-11.92-1.15-6.04-3.76-11.64-7.24-16.68-.42.04-.74.18-1.03.41Z"/>
      <path class="cls-3" d="m163.87,163.26c-.79-3.25-1.46-7.24-3.85-9.6-1.84,6.87-3.45,14.7-8.42,20.23-.33.37-.68.73-1.04,1.08,0-.01-3.3,3.33-5.02,4.29-4.22,3.21-7.85,7.11-11.56,10.89-5.05,4.03-11.43,5.82-17.77,6.52.09,0,.19.01.29.02,2.7.22,5.39.07,8.04-.5,14.61-3.1,27.78-13.79,32.75-28.01.95-4.4,2.83-8.54,3.31-13.05l.17.13c2.45,6.01,2.63,12.41,2.67,18.82.03,1.77,0,3.55-.38,5.3-.41,1.01-.11,2.22.83,2.25.11-1.34.21-2.66.32-4,.84.14,1.66.27,2.46.4,0-.89-.02-1.76-.03-2.62-.7-.17-1.69-.01-1.74-.96-.72-3.69-.26-7.49-1.02-11.17Z"/>
      <path class="cls-1" d="m144.15,180.33c-1.31-.84,2.26-4.28,2.32-5.52-2.52,2.23-5.16,4.31-7.86,6.32-2.19,3.77-4.36,7.41-8.15,9.92,1.92-2.4,3.69-4.99,5.16-7.68-5.85,3.98-11.34,8.92-18.39,10.56-.02-.28.18-.3.32-.36,1.56-.67,2.99-1.56,4.38-2.52,4.1-2.87,8.5-5.5,12.3-8.72-3.7.92-7.44,2.65-11.31,2.08,4.07-1.58,8.29-2.63,12.42-4.04.54-.13,2.29-.41,2.56-.61,2.75-2.18,5.76-4.2,8.16-6.75-3.4.4-6.79.84-10.22.85-.31,0-.31,0-.67-.23,3.15-.62,6.23-1.54,9.42-1.91,1.21-.32,2.7-.07,3.76-.75,1.93-1.96,4.27-3.57,6.52-5.11-1.09,2.44-3.48,3.82-4.96,5.96-1.78,2.93-3.43,5.97-5.75,8.5Z"/>
    </g>
    <path class="cls-4" d="m182.7,185.02c-7.39-7.68-19.71-10.23-29.75-7.03-20.54,7.06-27.5,33.29-21.57,52.53,7.23,24.17,27.28,26.78,44.46,9.91,15.15-14.5,22.63-38.51,6.87-55.41Z"/>
    <path class="cls-6" d="m181.68,184.03c-2.05-1.89-4.41-3.43-6.96-4.61-.37-.13-.75-.24-1.13-.34.18.18.28.28.39.39,4.71,6.73,8.12,14.44,8.47,22.73,1.17,17.51-5.19,37.32-20.63,46.97-.9.51-1.86.9-2.81,1.31,0,.03.02.05.03.08,2.44-.59,4.92-1.58,7.41-2.97,1.38-.78,2.71-1.66,3.99-2.61-.04.03-.08.06-.12.09.33-.24.66-.47,1-.71,0,0,0,0,0,0,1.52-1.17,3.03-2.48,4.52-3.94.23-.22.46-.45.69-.67.03-.03.06-.06.09-.1.05-.05.1-.09.14-.14,4.23-4.25,7.81-9.25,10.38-14.6,3.55-7.47,5.14-15.65,3.86-23.42-.89-5.2-3.08-10.25-6.86-14.83-.05-.06-.1-.12-.15-.18-.09-.11-.19-.22-.28-.33-.63-.72-1.31-1.43-2.02-2.12Z"/>
    <path class="cls-6" d="m163.88,176.73c-.3-.03-.6-.05-.91-.07-3.42-.12-6.84.31-10.03,1.33-1.67.57-3.25,1.28-4.74,2.09,1.99,5.16-.59,10.73-.57,16.05.67-1.59,1.1-3.28,1.72-4.89,1.54-4.19,3.97-8.01,7.49-10.82h0c2.16-1.55,4.56-2.73,7.03-3.69Z"/>
    <path class="cls-2" d="m140.94,204.15c-5.16-3.82-6.74,9.28-6.73,12.4.07,3.81.42,7.74,1.89,11.29,1.2,2.72,3.28,8.79,7.09,5.98,1.97-3.87,1.39-8.33-.37-12.18-.62-1.33-.91-2.72-.83-4.18-.17-4.36,1.8-9.53-1.05-13.3Z"/>
  </g>
</svg>